<?xml version="1.0" encoding="UTF-8" standalone="no"?>
<!DOCTYPE svg PUBLIC "-//W3C//DTD SVG 1.1//EN" "http://www.w3.org/Graphics/SVG/1.1/DTD/svg11.dtd">
<svg width="100%" height="100%" viewBox="0 0 512 512" version="1.1" xmlns="http://www.w3.org/2000/svg" xmlns:xlink="http://www.w3.org/1999/xlink" xml:space="preserve" xmlns:serif="http://www.serif.com/" style="fill-rule:evenodd;clip-rule:evenodd;stroke-linecap:round;stroke-linejoin:round;">
    <g transform="matrix(0.773047,0,0,0.81237,-91.1854,-6.55435)">
        <g transform="matrix(1.07513,0,0,1.07513,-102.487,-237.683)">
            <path d="M310.481,649.632C310.481,649.632 304.864,649.769 301.997,649.971C297.419,650.294 290.024,651.053 283.145,651.658C292.566,628.555 304.249,607.633 315.372,586.384C311.158,581.675 306.857,576.812 302.495,572.004C281.161,548.492 263.294,522.531 248.566,494.466C236.42,471.322 227.708,446.871 223.558,420.991C220.294,400.64 218.992,380.162 219.887,359.495C220.677,341.249 221.863,323.059 224.561,305.009C226.906,289.314 229.504,273.721 237.386,259.437C244.346,246.824 257.78,239.008 273.988,244.038C285.004,247.456 295.018,252.974 304.505,259.493C324.299,273.093 342.526,288.663 360.447,304.559C384.719,326.088 409.927,346.602 432.489,370.011C444.839,382.825 456.034,396.523 465.084,411.951C468.752,418.203 471.446,425.092 476.027,430.534C486.934,428.807 497.425,427.726 508,427.497C521.265,427.211 534.448,427.939 547.51,430.45C549.073,430.751 550.452,430.672 551.636,428.577C554.065,424.283 556.088,419.755 558.599,415.559C571.798,393.5 588.136,373.885 607.055,356.56C636.59,329.515 666.74,303.145 697.56,277.572C712.853,264.883 728.719,252.918 747.482,245.456C763.713,239.001 777.962,243.742 786.485,256.01C791.745,263.582 794.875,272.114 796.975,281.006C803.421,308.289 805.639,336.079 806.448,364.001C806.792,375.848 805.972,387.678 805.048,399.504C802.989,425.863 796.808,451.19 786.477,475.49C776.2,499.664 762.497,521.863 747.002,543.001C737.117,556.486 726.401,569.277 715,581.5C710.615,586.202 710.561,586.664 713.497,592.002C717.343,598.995 721.319,605.922 724.967,613.017C731.417,625.563 737.27,638.392 742.96,651.744C741.5,651.008 715.834,649.5 715.834,649.5C718.731,653.828 721.728,658.094 724.471,662.518C728.744,669.406 732.511,676.555 734.802,684.526C732.177,685.056 729.836,685.517 727.5,686.002C716.883,688.207 706.368,690.746 695.979,693.931C675.925,700.081 656.83,708.362 638.497,718.494C614.778,731.603 590.095,743.014 569.769,761.749C564.204,766.878 558.34,771.434 553.322,777.349C540.55,792.401 523.047,795.648 504.521,793.331C490.97,791.637 478.56,786.531 470.572,774.452C467.546,769.876 464.207,766.056 459.016,763.961C455.699,762.622 453.53,759.809 451.523,756.984C449.67,754.374 447.25,752.586 444.523,750.962C424.503,739.039 404.734,726.636 383.944,716.111C362.846,705.431 341.134,696.055 317.997,690.512C309.152,688.393 300.274,686.411 291.161,684.309C294.886,673.917 299.993,664.733 305.967,655.978C307.265,654.076 310.481,649.632 310.481,649.632Z" style="fill:rgb(184,111,60);stroke:rgb(77,39,20);stroke-width:3px;"/>
        </g>
        <g transform="matrix(0.258032,0,0,0.258032,-102.487,-237.683)">
            <g id="Left">
                <g transform="matrix(4.16667,0,0,4.16667,0,0)">
                    <path d="M344.5,541.5C360.611,522.876 378.981,506.877 400.013,494.02C408.938,488.564 417.827,483.003 427.086,478.165C430.715,476.269 431.028,474.64 429.512,471.494C420.637,453.068 411.029,435.03 400.477,417.514C378.694,381.352 354.645,346.779 328.062,313.95C316.819,300.064 305.771,286.03 292.956,273.545C287.094,267.833 280.827,262.629 273.029,259.43C262.005,254.909 254.323,258.595 249.408,268.454C244.49,278.318 242.379,288.883 240.575,299.513C237.235,319.187 235.495,339.021 234.915,358.998C234.151,385.354 235.963,411.336 242.389,437.028C247.2,456.258 257.206,472.369 270.031,486.973C286.098,505.267 305.574,519.301 326.467,531.557C332.266,534.959 337.95,538.545 344,541.5" style="fill:rgb(209,158,106);fill-rule:nonzero;stroke:rgb(77,39,20);stroke-width:3px;"/>
                </g>
                <g transform="matrix(4.16667,0,0,4.16667,0,0)">
                    <path d="M261,308.5C257.225,325.799 255.56,343.32 256.039,360.999C256.762,387.702 261.586,413.453 275.016,436.991C285.723,455.756 299.45,472.029 315.44,486.566C329.823,499.642 345.773,510.48 362,521" style="fill:none;fill-rule:nonzero;stroke:rgb(77,39,20);stroke-width:3.76px;"/>
                </g>
            </g>
            <g id="Right">
                <g transform="matrix(4.16667,0,0,4.16667,0,0)">
                    <path d="M682,541.5C702.657,530.236 722.823,518.249 740.512,502.513C757.452,487.444 771.823,470.405 779.896,448.961C785.692,433.564 788.543,417.364 789.922,400.993C790.832,390.195 791.56,379.325 791.391,368.502C790.956,340.587 789.074,312.776 782.482,285.504C781.066,279.645 779.237,273.909 776.503,268.498C770.814,257.239 762.734,254.736 751.022,260.049C740.7,264.731 732.966,272.86 725.564,281.058C692.178,318.03 662.805,358.084 636.096,400.061C621.191,423.486 607.586,447.71 596.021,473.01C595.676,473.764 595.643,474.66 595.334,476.097C600.966,479.182 606.791,482.241 612.49,485.517C636.714,499.446 659.018,515.812 677.513,536.989C678.75,538.406 680.167,539.667 681.5,541" style="fill:rgb(209,158,106);fill-rule:nonzero;stroke:rgb(77,39,20);stroke-width:3px;"/>
                </g>
                <g transform="matrix(4.16667,0,0,4.16667,0,0)">
                    <path d="M765,309C771.623,340.536 772.229,372.081 764.445,403.486C758.475,427.576 746.176,448.4 729.978,466.981C712.608,486.908 692.076,503.133 670.002,517.503C667.988,518.814 666,520.167 664,521.5" style="fill:none;fill-rule:nonzero;stroke:rgb(77,39,20);stroke-width:3.76px;"/>
                </g>
            </g>
        </g>
        <g transform="matrix(1.07513,0,0,1.07513,-102.487,-237.683)">
            <path d="M278.5,517C296.336,530.741 315.491,542.511 335.087,554.022C330.924,560.503 327.152,566.375 323.121,572.651C312.933,562.286 304.141,551.452 295.533,540.474C291.998,535.965 288.953,531.073 285.422,526.561L278.5,517Z" style="fill:rgb(212,178,132);fill-rule:nonzero;stroke:rgb(77,39,20);stroke-width:3px;"/>
        </g>
        <g transform="matrix(1.07513,0,0,1.07513,-102.487,-237.683)">
            <path d="M746,518C736.63,525.5 726.681,532.173 716.488,538.48C709.05,543.082 701.485,547.475 694.018,552.03C693.036,552.629 691.688,553.021 691.44,554.871C695.058,560.514 698.826,566.389 702.808,572.599C712.927,562.164 721.747,551.355 730.459,540.468C734.037,535.997 737.047,531.073 740.578,526.561L746,518Z" style="fill:rgb(212,178,132);fill-rule:nonzero;stroke:rgb(77,39,20);stroke-width:3px;"/>
        </g>
        <g transform="matrix(1.07513,0,0,1.07513,-102.487,-237.683)">
            <g>
                <path d="M678,314.5C670.245,320.962 662.491,327.421 654.802,333.959C646.916,340.664 639.1,347.453 631.422,354.414C611.174,372.77 591.617,391.609 576.935,414.959C573.062,421.119 569.845,427.579 566.487,433.993C560.448,445.528 553.752,456.609 543.859,466.126C541.824,462.333 543.823,459.126 544.117,456.011C544.435,452.629 545.667,449.333 546.654,445.386C524.201,441.203 501.864,441.561 479.449,445.1C480.561,452.158 483.336,458.558 482.947,466.072C477.999,463.112 475.375,458.878 472.551,454.963C466.199,446.154 460.755,436.805 455.924,427.038C446.984,408.963 434.385,393.479 420.496,379.004C400.932,358.614 349.195,314.063 347.678,313.991C350.986,318.121 353.916,321.903 356.957,326.225C361.475,332.647 365.841,339.178 370.482,345.513C386.425,367.277 401.124,389.891 414.895,413.063C426.626,432.802 437.889,452.851 446.992,474.003C447.554,475.31 448.133,476.633 448.476,478.006C449.717,482.976 449.088,484.521 444.49,486.476C419.368,497.155 396.905,511.905 376.454,529.948C361.375,543.253 349.446,559.029 339.049,576.03C328.106,593.923 317.896,612.236 309.398,631.447C312,634.19 314.857,631.854 316.943,631.289C331.877,627.239 346.295,621.738 360.578,615.683C375.455,609.377 390.164,602.458 406.483,599.889C435.304,595.351 455.746,608.292 468.465,631.02C473.024,639.168 476.466,647.855 480.1,656.458C483.818,665.261 482.865,673.346 478.528,681.515C473.077,691.786 467.594,702.052 462.581,712.539C458.998,720.034 456.851,727.989 458.491,736.502C461.122,750.16 468.035,755.274 481.488,752.934C487.889,751.82 494.218,750.179 500.468,748.387C502.253,747.875 505.269,747.958 505.035,744.498C504.839,741.606 505.421,738.913 501.565,737.341C497.605,735.726 494.209,732.763 490.492,730.513C478.485,723.245 481.536,714.917 490.037,707.542C498.745,699.988 509.111,699.63 520.013,700.885C528.968,701.915 536.033,705.271 541.052,712.966C544.681,718.527 544.366,723.002 539.514,727.515C535.044,731.672 529.62,734.438 524.395,737.309C521.162,739.087 520.908,741.163 521.003,744C521.113,747.262 523.752,747.39 526,748.001C534.541,750.321 542.965,752.983 551.998,753.108C557.439,753.183 560.688,751.059 563.607,746.57C569.993,736.749 569.254,726.5 565.318,716.572C561.488,706.907 556.392,697.71 551.388,688.561C549.406,684.937 547.843,681.161 546.029,677.486C542.884,671.111 542.829,664.583 545.495,657.998C551.299,643.665 556.907,629.287 567.457,617.461C579.97,603.435 595.311,597.873 614.012,599.347C630.386,600.637 644.808,607.201 659.526,613.438C676.774,620.747 694.058,628.059 712.506,631.973C713.784,632.244 715.144,632.127 717.406,632.236C699.99,597.35 683.321,563.24 655.938,536.063C639.875,520.12 621.655,506.985 601.568,496.371C594.908,492.853 588.4,489.045 581.49,486.023C577.739,484.382 576.921,481.833 577.94,477.984C579.529,471.977 582.407,466.532 585.069,461.033C595.06,440.39 606.393,420.473 618.507,401.005C629.624,383.14 641.055,365.483 653.483,348.487C658.422,341.732 678,314.5 678,314.5" style="fill:rgb(212,178,132);fill-rule:nonzero;stroke:rgb(77,39,20);stroke-width:3px;"/>
            </g>
        </g>
        <g transform="matrix(1.07513,0,0,1.07513,-102.487,-237.683)">
            <path d="M670,634.5C681.235,637.083 690.321,642.73 697.634,651.893C703.037,658.663 709.052,664.891 712.757,673.778C665.984,684.077 625.197,707.69 584.627,731.684C582.326,729.335 583.501,726.491 582.938,724.014C581.318,716.883 578.715,710.149 575.729,703.399C570.92,692.523 563.468,683 559.974,671.508C558.243,665.814 561.909,653.306 566.502,650.002C567.658,649.171 568.721,649.528 570.016,649.949C598.11,659.076 621.359,643.294 628.57,620.522C628.83,619.7 628.809,618.419 630.23,617.981C643.208,621.629 655.337,627.99 667.974,633.065C668.468,633.264 669.713,633.287 669.5,634.5" style="fill:rgb(212,178,132);fill-rule:nonzero;stroke:rgb(77,39,20);stroke-width:3px;"/>
        </g>
        <g transform="matrix(1.07513,0,0,1.07513,-102.487,-237.683)">
            <path d="M314.5,674C326.482,677.725 338.772,680.343 350.533,684.915C368.806,692.019 386.274,700.764 403.462,710.069C416.001,716.858 428.515,723.733 440.519,731.471C440.872,731.699 441.5,731.5 442.454,731.5C443.335,725.5 443.882,719.381 445.899,713.466C449.602,702.608 456.034,693.183 461.004,683.002C462.312,680.323 463.776,677.715 464.979,674.991C468.177,667.742 465.665,655.85 460.021,650.478C458.054,648.605 456.395,649.926 454.491,650.467C431.905,656.881 412.417,648.458 401.06,628.965C399.048,625.51 397.826,621.595 396.181,617.755C382.539,622.209 369.602,627.692 356.982,633.965C355.78,634.562 354.333,634.666 353,635C343.463,637.392 336.444,643.389 329.927,650.432C324.659,656.125 319.998,662.243 315.599,668.569C314.71,669.848 313.635,671.574 314,673.5" style="fill:rgb(212,178,132);fill-rule:nonzero;stroke:rgb(77,39,20);stroke-width:3px;"/>
        </g>
        <g transform="matrix(1.07513,0,0,1.07513,-102.487,-237.683)">
            <path d="M364.996,581.995C380.157,569.043 397.741,563.847 417.503,565.458C419.479,565.619 421.561,565.901 423.5,565L415,554.5C419.55,553.123 423.709,554.994 428.006,555.974C442.335,559.246 453.614,567.948 465.03,576.46C465.991,577.176 465.5,566.5 465.5,566.5C470.197,569.069 472.306,573.892 474.89,578.068C481.467,588.695 486,616.5 486,616.5C482.561,610.354 477.204,605.956 471.969,601.536C453.371,585.835 431.302,580.114 407.5,579.487C394.72,579.15 364.363,582.535 364.996,581.995Z" style="fill:rgb(184,111,60);fill-rule:nonzero;stroke:rgb(77,39,20);stroke-width:3px;"/>
        </g>
        <g transform="matrix(-1.07513,0,0,1.07513,1001.06,-237.683)">
            <path d="M364.996,581.995C380.157,569.043 397.741,563.847 417.503,565.458C419.479,565.619 421.561,565.901 423.5,565L415,554.5C419.55,553.123 423.709,554.994 428.006,555.974C442.335,559.246 453.614,567.948 465.03,576.46C465.991,577.176 465.5,566.5 465.5,566.5C470.197,569.069 472.306,573.892 474.89,578.068C481.467,588.695 486,616.5 486,616.5C482.561,610.354 477.204,605.956 471.969,601.536C453.371,585.835 431.302,580.114 407.5,579.487C394.72,579.15 364.363,582.535 364.996,581.995Z" style="fill:rgb(184,111,60);fill-rule:nonzero;stroke:rgb(77,39,20);stroke-width:3px;"/>
        </g>
        <g transform="matrix(1.07513,0,0,1.07513,-102.487,-237.683)">
            <path d="M484.999,768.001C490.415,775.504 498.584,778.111 507.015,778.827C519.648,779.9 541.49,768.49 541.49,768.49C541.49,768.49 522.868,760.917 513.506,761.025C504.145,761.133 492.746,765.503 484.999,768.001Z" style="fill:rgb(212,178,132);fill-rule:nonzero;stroke:rgb(77,39,20);stroke-width:3px;"/>
        </g>
    </g>
</svg>
